<svg xmlns="http://www.w3.org/2000/svg" xmlns:xlink="http://www.w3.org/1999/xlink" xmlns:v="https://vecta.io/nano" height="24" width="24"><path d="M5 4c-1.105 0-2 .9-2 2v14c0 1.1.895 2 2 2h6 2 6c1.105 0 2-.9 2-2V6c0-1.1-.895-2-2-2h-6-2-6z" fill="#bdc3c7"/><path d="M5 3a2 2 0 0 0-2 2v14a2 2 0 0 0 2 2h6 2 6a2 2 0 0 0 2-2V5a2 2 0 0 0-2-2h-6-2-6z" fill="#ecf0f1"/><path d="M5 3a2 2 0 0 0-2 2v3 1h18V8 5a2 2 0 0 0-2-2h-6-2-6z" fill="#e74c3c"/><path d="M7.5 5.5a1.5 1.5 0 1 1-3 0 1.5 1.5 0 1 1 3 0z" fill="#c0392b"/><path d="M6 1a1 1 0 0 0-1 1v3a1 1 0 1 0 2 0V2a1 1 0 0 0-1-1z" fill="#bdc3c7"/><path d="M19.5 5.5a1.5 1.5 0 1 1-3 0 1.5 1.5 0 1 1 3 0z" fill="#c0392b"/><g fill="#bdc3c7"><path d="M18 1a.97.97 0 0 0-1 1v3c0 .5.448 1 1 1s1-.5 1-1V2a.97.97 0 0 0-1-1z"/><use xlink:href="#B"/><use xlink:href="#B" y="3"/><use xlink:href="#B" y="6"/></g><defs><path id="B" d="M5 11v2h2v-2H5zm3 0v2h2v-2H8zm3 0v2h2v-2h-2zm3 0v2h2v-2h-2zm3 0v2h2v-2h-2z"/></defs></svg>
