<svg xmlns="http://www.w3.org/2000/svg" xmlns:v="https://vecta.io/nano" viewBox="0 0 24 24"><path d="M1,10.6h22V23H1V10.6z" fill="#f7fbff"/><path d="M2.4 9.6h19.2H24V2.4h-2.4v1.2c0 1.3-1.1 2.4-2.4 2.4s-2.4-1.1-2.4-2.4V2.4H7.2v1.2C7.2 4.9 6.1 6 4.8 6S2.4 4.9 2.4 3.6V2.4H0v7.2h2.4z" fill="#8c1117"/><path d="M15 20.4v-4.5h-1.7v-1.2c1.1 0 1.8-.3 2-1.3h1.3v7.1H15v-.1zm-5-1.3c-.8 0-1.1-.6-1.1-1.3H7.4c0 1.7 1 2.6 2.6 2.6 1.4 0 2.6-.9 2.6-2.3a1.78 1.78 0 0 0-1-1.6c.5-.2.8-.7.8-1.4 0-1.2-1.2-2-2.4-2-1.4 0-2.4.8-2.4 2.5h1.5c0-.7.2-1.2.9-1.2.4 0 .9.2.9.8 0 .7-.7.8-1.4.7v1.3c1 0 1.6.1 1.6.9-.1.7-.6 1-1.1 1zM3.6 3.6V1.2C3.6.5 4.1 0 4.8 0S6 .5 6 1.2v2.4c0 .7-.5 1.2-1.2 1.2s-1.2-.5-1.2-1.2zm15.6 1.2c.7 0 1.2-.5 1.2-1.2V1.2c0-.7-.5-1.2-1.2-1.2S18 .5 18 1.2v2.4c0 .7.5 1.2 1.2 1.2zm3.8 5.8V23H1V10.6h22m1-1H0V24h24V9.6h0z"/></svg>
