<svg viewBox="0 0 139.5 24" xmlns="http://www.w3.org/2000/svg"><title>Goinsan</title><path d="M47.8 7.3l-2.4 2.2c-.5-.9-1.1-1.5-1.8-1.9-.8-.4-1.5-.6-2.3-.6-1.3 0-2.4.5-3.4 1.5s-1.4 2.1-1.4 3.5.5 2.6 1.4 3.6c1 1 2.1 1.5 3.4 1.5.7 0 1.4-.2 2.1-.6s1.2-1.1 1.6-2.1h-3.9v-3.2h7.6v2.1c0 1.1-.4 2.3-1.1 3.5-.8 1.3-1.8 2.2-3 2.8s-2.5.9-3.7.9c-2.3 0-4.2-.8-5.8-2.5s-2.4-3.7-2.4-6.1c0-2.3.8-4.3 2.4-5.9s3.6-2.5 5.8-2.5c3.1 0 5.3 1.3 6.9 3.8zm3.1 4.7c0-2.4.8-4.5 2.4-6.1s3.5-2.4 5.8-2.4c2.5 0 4.5.8 6.1 2.4s2.4 3.6 2.4 6.1c0 2.4-.8 4.4-2.4 6s-3.6 2.4-6 2.4-4.4-.8-6-2.4c-1.5-1.5-2.3-3.5-2.3-6zm8.4-5.1c-1.4 0-2.5.5-3.4 1.4-.8 1-1.3 2.3-1.3 3.8s.4 2.7 1.3 3.7 2 1.4 3.3 1.4c1.4 0 2.5-.5 3.4-1.4.9-1 1.3-2.2 1.3-3.8 0-1.5-.4-2.8-1.3-3.7-.8-.9-1.9-1.4-3.3-1.4z" fill="#ffc312"></path><path d="M70.4 3.7H74v16.5h-3.6V3.7zm17.8 0h3.5v16.5h-3.5L80.7 9.6v10.7h-3.6V3.7h3.5l7.6 10.6V3.7zm16.1 1.5l-2.2 2.4c-1.2-.7-2-1-2.5-1-.4 0-.7.1-1 .4s-.4.7-.4 1.1c0 .8.7 1.5 2.2 2.1 1.1.5 1.9.9 2.5 1.3s1 .9 1.4 1.6.6 1.4.6 2.2c0 1.4-.6 2.7-1.7 3.7-1.1 1.1-2.5 1.6-4.1 1.6-1.7 0-3.4-.8-5.1-2.4l2.3-2.7c1 1.1 2 1.6 2.9 1.6.4 0 .8-.2 1.2-.6s.6-.8.6-1.2c0-.9-.9-1.6-2.7-2.3-1-.4-1.8-.7-2.2-1.1-.4-.3-.8-.8-1.1-1.4s-.4-1.3-.4-1.9C94.5 7 95 5.8 96 4.9s2.2-1.4 3.8-1.4c1.7 0 3.3.6 4.5 1.7zm8.8-1.5h2.8l6.7 16.5H119l-1.3-3.3h-6.3l-1.3 3.3h-3.6l6.6-16.5zm1.4 5.4l-1.9 4.9h3.9l-2-4.9zM136 3.7h3.5v16.5H136l-7.6-10.7v10.7h-3.6V3.7h3.5l7.6 10.6V3.7zM24 12a12.04 12.04 0 0 1-12 12A12.04 12.04 0 0 1 0 12c0-3.3 11.7 6.1 12-5s12-5.1 12 5zM7.8 0a3.37 3.37 0 0 0-3.4 3.4 3.37 3.37 0 0 0 3.4 3.4 3.37 3.37 0 0 0 3.4-3.4A3.44 3.44 0 0 0 7.8 0zM3.2 6.6a1.47 1.47 0 0 0-1.5 1.5 1.54 1.54 0 0 0 1.5 1.5 1.47 1.47 0 0 0 1.5-1.5 1.47 1.47 0 0 0-1.5-1.5z" fill="#ffffff"></path></svg>
