<svg xmlns="http://www.w3.org/2000/svg" viewBox="0 0 55.7 38.9" xmlns:v="https://vecta.io/nano"><style><![CDATA[.G{fill:#252422}.H{stroke:#252422}.I{stroke-width:1.6}]]></style><path d="M3.28 38.65h49.13c1.67 0 3.03-1.37 3.03-3.03V3.28c0-1.67-1.36-3.03-3.03-3.03H3.28C1.61.25.25 1.61.25 3.28v32.33c0 1.68 1.36 3.04 3.03 3.04h0z" fill="#fefefe" stroke="#ccc" stroke-width=".5" stroke-miterlimit="2.6131"/><path d="M12.54 15.01l5.32-7.99-5.32 7.99h0zm-2-1.33l5.33-7.99-5.33 7.99h0zm-1.99-1.33l5.33-7.99-5.33 7.99h0z" class="G"/><path d="M12.54 15.01l5.32-7.99m-7.32 6.66l5.33-7.99m-7.32 6.66l5.33-7.99" fill="none" class="H I"/><path d="M41.83 34.54l5.33-7.99-5.33 7.99h0zm-2-1.33l5.33-7.99-5.33 7.99h0zm-2-1.33l5.33-7.99-5.33 7.99h0z" class="G"/><g fill="none"><path d="M41.83 34.54l5.33-7.99m-7.33 6.66l5.33-7.99m-7.33 6.66l5.33-7.99" class="H I"/><path d="M39.17 26.99l6.65 4.44" stroke="#fefefe" stroke-width=".8"/></g><path d="M19.86 14.13a9.6 9.6 0 0 1 13.31-2.66 9.6 9.6 0 0 1 2.66 13.31 9.6 9.6 0 0 1-13.31 2.66 9.6 9.6 0 0 1-2.66-13.31h0z" fill="#c62631"/><path d="M19.86 14.13a4.81 4.81 0 0 0 1.33 6.66 4.81 4.81 0 0 0 6.66-1.33 4.8 4.8 0 1 1 7.99 5.33 9.6 9.6 0 0 1-13.31 2.66c-4.42-2.95-5.61-8.91-2.67-13.32h0z" fill="#303c70"/><path d="M17.86 31.88l-5.32-7.99 5.32 7.99h0zm-1.99 1.33l-5.33-7.99 5.33 7.99h0zm-2 1.33l-5.33-7.99 5.33 7.99h0z" class="G"/><path d="M17.86 31.88l-5.32-7.99m3.33 9.32l-5.33-7.99m3.33 9.32l-5.33-7.99" fill="none" class="H I"/><path d="M47.15 12.35l-5.33-7.99 5.33 7.99h0zm-1.99 1.33l-5.33-7.99 5.33 7.99h0zm-2 1.33l-5.33-7.99 5.33 7.99h0z" class="G"/><path d="M47.15 12.35l-5.33-7.99m3.34 9.32l-5.33-7.99m3.33 9.32l-5.33-7.99" fill="none" class="H I"/><path d="M43.49 9.02l2-1.33-2 1.33h0zm-4.32 2.89l2.33-1.55-2.33 1.55h0zM12.21 29.88l2-1.33-2 1.33h0z" class="G"/><path d="M43.49 9.02l2-1.33m-6.32 4.22l2.33-1.55M12.21 29.88l2-1.33" fill="none" stroke="#fefefe" stroke-width=".8"/></svg>