<svg xmlns="http://www.w3.org/2000/svg" xmlns:v="https://vecta.io/nano" viewBox="0 0 48 48" width="24" height="24"><path fill="#ffe082" d="M44.098 30.76c0-1.548-1.136-2.839-2.646-3.138l.056-4.805s-.154-4.444-.5-5.76c-.474-1.802-3.152-7.804-10.956-7.728l-6.129.036c-.308.001-.593.144-.781.388l-1.35 1.745s-4.066.949-6.435 4.471c-1.981 2.943-1.134 7.233-.691 8.911l-.021 2.729c-1.577.247-2.784 1.558-2.784 3.151 0 1.5.954 2.883 2.784 3.207.46 7.229 7.971 12.959 13.348 12.959s12.893-5.734 13.349-12.966c1.811-.334 2.756-1.707 2.756-3.2z"/><path d="M32.31 27.693c0 1.016-.831 1.847-1.847 1.847s-1.847-.831-1.847-1.847.831-1.847 1.847-1.847 1.847.831 1.847 1.847m-12.926 0c0-1.016-.831-1.847-1.847-1.847s-1.847.831-1.847 1.847.831 1.847 1.847 1.847 1.847-.832 1.847-1.847M22.231 34h3.537c.787 0 1.425.638 1.425 1.425h0c0 .787-.638 1.425-1.425 1.425h-3.537c-.787 0-1.425-.638-1.425-1.425h0c.001-.787.639-1.425 1.425-1.425z" fill="#18193f"/><path d="M38.685 22.591c1.831 0 3.315 1.434 3.315 3.203s-1.484 3.203-3.315 3.203m-29.361-5.44c-1.831 0-3.315 1.434-3.315 3.203s1.21 3.389 3.74 3.284m7.788 10.7c2.132 1.381 4.445 2.182 6.456 2.182 5.549 0 13.393-6.097 13.393-13.651l.121-10.458M30.935 6.024c-1.388-.603-3.062-.979-5.07-.959l-6.72.039-1.676 2.165s-4.133.965-6.54 4.544c-2.548 3.786-.489 9.786-.489 9.786l.226.976-.066 6.702c0 2.457.83 4.759 2.14 6.748m3.123-17.524c.786-.793 1.534-1.779 2.146-3.002 0 0 3.601 3.968 6.895 3.886 4.478-.111 9.018-1.652 9.913-.895l2.652 2.476s.117-5.821-.469-8.048c-.093-.352-.268-.861-.547-1.454" fill="none" stroke="#18193f" stroke-linecap="round" stroke-linejoin="round" stroke-width="3"/></svg>
