<svg xmlns="http://www.w3.org/2000/svg" xmlns:v="https://vecta.io/nano" viewBox="0 0 1280 720"><path d="M0 0h1280v720H0z" fill="#fffffb"/><path d="M348.4 272.4l98.1 98.1c48.2-45.9 112.8-74.6 184.1-76.4V155.5c-106.2 1.7-205.9 43-282.2 116.9z" fill="#f26922"/><path d="M644.5 155.5v138.6c71.2 1.8 135.9 30.5 184.1 76.4l98.1-98.1c-76.4-73.9-176.1-115.2-282.2-116.9z" fill="#fdd007"/><path d="M338.6 282.2c-75.5 78-117 180.3-117 289.1h138.6c0-73.9 29.1-141.2 76.5-191l-98.1-98.1z" fill="#ee2926"/><path d="M936.4 282.2l-98.1 98.1c47.4 49.8 76.5 117 76.5 191h138.6c0-108.8-41.5-211.2-117-289.1z" fill="#4db748"/><path d="M223.3 433.9c2.2.5 4.4-1.2 5.6-4 1.1-2.9.6-5.4-1.3-6.1-1.6-.7-3.1.2-5 3.1l-2.1 3.1c-2.9 4.5-6.1 6-9.9 4.6-4.7-1.7-6.3-7.3-3.9-13.3 2.5-6.3 7.2-9 11.8-7.1-.9 2.1-1.3 3.1-2.1 5.2-2.2-.7-4.3.8-5.4 3.6s-.5 5.1 1.4 5.8c1.6.6 2.9-.4 4.8-3.1l1.9-2.9c3.2-4.8 6.4-6.2 10.2-4.6 4.9 2.1 6.3 7.3 3.8 13.7-2.4 6.1-6.8 9-11.6 7.4.6-2.2 1-3.3 1.8-5.4zm14.8-15.8L213 407.2l2.5-5.6 11.4 5.1c0-.1 0-.1.1-.2-2.8-5.9-4.2-8.9-6.8-15l3-6.1c2.4 6 3.7 9 6.3 14.8 7.4-1.5 11.1-2.2 18.5-3.3l-3 6.2-13.8 2.6 1.7 3.7 7.6 3.4c-1.1 2.1-1.5 3.2-2.4 5.3zm10.9-23.3l-24.4-12.3 2.8-5.4 24.3 12.6c-1.2 2-1.7 3-2.7 5.1zm-13.7-32.4c2.9-5.2 8.3-6.8 13.1-3.9s5.9 8.3 3 13.4l-2.6 4.6 7.6 4.2c-1.1 2-1.7 3-2.7 5l-24.1-12.9c2.2-4.2 3.4-6.3 5.7-10.4zm9.7 11.9c.8-1.4 1.2-2.1 1.9-3.5 1.7-3 1.1-5.5-1.6-7.1s-5.2-.7-6.9 2.3l-2 3.6 8.6 4.7z" fill="#ee2926"/><path d="M421.2 201.9l-13.6-23.7 11-6.1c4.8-2.6 9-1.8 11 1.9 1.4 2.7.5 5.9-2 7.7 0 .1 0 .1.1.1 3.5-1.6 7.3-.4 8.9 2.8 2.2 4.3.4 8.6-4.8 11.4l-10.6 5.9zm-2.8-16.8c1.5-.8 2.2-1.2 3.7-2.1 2.8-1.5 3.7-3.5 2.6-5.6-1-1.9-3-2.3-5.5-.9a92.58 92.58 0 0 0-4.3 2.4l3.5 6.2zm10.1 7.9c2.9-1.6 3.9-3.7 2.6-6-1.2-2.3-3.5-2.6-6.6-.9a92.58 92.58 0 0 0-4.3 2.4c1.5 2.8 2.3 4.2 3.9 6.9 1.8-1 2.6-1.5 4.4-2.4zm14.6-2.9l-12.4-24.4 5.4-2.7 12.1 24.5-5.1 2.6zm21-17.3l-8.9 4 .9 6.9-5.3 2.5c-1.4-11.5-1.9-17.3-2.9-28.9l6.5-2.9c8.1 8.3 12.1 12.6 19.9 21.2-2.2 1-3.4 1.4-5.6 2.4l-4.6-5.2zm-9.6-.4l6.7-3-7.9-8.7c-.1 0-.1 0-.1.1.4 4.6.7 6.9 1.3 11.6zm23-6.6c1.1 2 3.9 2.5 6.7 1.3 2.9-1.1 4.3-3.2 3.6-5.1-.6-1.7-2.2-2.1-5.7-1.6-1.5.2-2.2.4-3.7.6-5.2.9-8.6-.4-10.1-4.1-2-4.6 1-9.5 7-11.9 6.3-2.5 11.4-.9 13.2 3.7l-5.2 2c-1-2.1-3.5-2.6-6.3-1.5s-4.1 3.1-3.3 5c.6 1.6 2.3 1.9 5.6 1.4 1.4-.2 2.1-.4 3.5-.6 5.7-1 8.8.4 10.3 4.3 1.8 5-1 9.6-7.4 12.1-6.1 2.4-11.2 1.2-13.3-3.5 2-.8 3-1.3 5.1-2.1zm34.1-11.3l-9.3 3.1.2 7-5.5 2c-.2-11.6-.2-17.4 0-29l6.7-2.3c7.3 9.1 10.8 13.7 17.7 23l-5.8 1.8-4-5.6zm-9.5-1.4l6.9-2.4-7-9.5h-.1l.2 11.9z" fill="#f26922"/><path d="M745.9 157.5l7.6-26.3 12.1 3.6c5.2 1.6 7.6 5.2 6.3 9.2-.9 2.8-3.9 4.5-6.9 4v.1c3.6 1.4 5.4 4.9 4.2 8.4-1.5 4.6-5.9 6.2-11.5 4.5l-11.8-3.5zm10.1-13.6c1.6.5 2.4.7 4.1 1.2 3 .9 5.1.2 5.9-2 .7-2.1-.5-3.8-3.2-4.6-1.9-.6-2.8-.9-4.7-1.4-.9 2.7-1.3 4-2.1 6.8zm1.4 12.6c3.2 1 5.3.2 6.1-2.3.8-2.4-.6-4.3-3.9-5.4-1.9-.6-2.8-.9-4.7-1.4l-2.3 7.6a44.19 44.19 0 0 0 4.8 1.5zm29.5 7.8l-9.2-3.4-4.2 5.5c-2.2-.8-3.3-1.2-5.6-1.9 7.1-9.1 10.8-13.6 18.3-22.6l6.7 2.5c-.1 11.7-.2 17.5-.7 29l-5.7-2.2.4-6.9zm-6.5-7l6.9 2.5.5-11.8h-.1c-3 3.7-4.5 5.5-7.3 9.3zm24.4 21.8c-7.5-3.2-10.2-10-6.9-18.3 3.2-8.1 10.1-11.1 18-7.8 6.2 2.7 9.3 8.2 7.7 13.6l-5.4-2.5c.4-3-1.2-5.5-4.2-6.8-4.3-1.9-8.3.2-10.5 5.6-2.3 5.5-.9 9.9 3.3 11.7 3.5 1.5 6.8.5 8.3-2.6l.2-.4c-2.2-1-3.3-1.5-5.6-2.4.7-1.5 1-2.3 1.7-3.8l10.9 4.8-1.3 2.8c-3.2 7-9.2 9.2-16.2 6.1zm24.3-.6c-1.5 3.2-.6 6.1 2.7 7.8 3.3 1.6 6.2.6 7.8-2.6l7.8-15.2 5.4 2.8-8.2 15.7c-2.8 5.3-8.6 6.9-14.9 3.8s-8.6-8.7-6.1-14.2l7.5-16c2.2 1 3.3 1.5 5.5 2.6l-7.5 15.3zm22.7 14.4c-.8 2.1.5 4.5 3.2 6s5.2 1.3 6.2-.4c.9-1.5.2-3.1-2.4-5.4l-2.8-2.5c-4-3.5-5.1-6.9-3.2-10.4 2.4-4.4 8-5.2 13.7-2.1 5.9 3.3 7.9 8.3 5.4 12.6l-4.8-2.8c1-2.1-.2-4.4-2.8-5.9s-5-1.2-6 .5c-.8 1.5-.1 3 2.4 5.2 1.1.9 1.6 1.4 2.6 2.3 4.3 3.8 5.3 7.1 3.1 10.7-2.7 4.6-8.1 5.2-14 1.9-5.8-3.2-8-7.9-5.7-12.6 2.2 1.3 3.2 1.8 5.1 2.9z" fill="#f3c716"/><path d="M998.3 333.9c-3.8-6.1-5.7-9.1-9.8-15l22.6-15.3c1.4 2 2.1 3.1 3.4 5.1l-18.9 12.4 6.6 10.3c-1.5 1-2.3 1.5-3.9 2.5zm13.1 1.9c-3 1.8-3.9 4.8-2 8s4.9 3.9 8 2.2l14.9-8.4 3 5.4-15.5 8.5c-5.3 2.9-11 .9-14.6-5.2s-2.4-12.1 2.7-15.3l15.1-9.3 3.2 5.2-14.8 8.9zm15 35.2l-4.4-8.8-6.9 1.2-2.8-5.2c11.4-1.8 17.2-2.6 28.8-4 1.3 2.6 2 3.8 3.2 6.4a666.5 666.5 0 0 1-20.3 20.8c-1-2.2-1.6-3.3-2.7-5.5l5.1-4.9zm0-9.7c1.4 2.6 2 3.9 3.3 6.6l8.4-8.3c0-.1 0-.1-.1-.1l-11.6 1.8zm1.3 27.8c-.9-2.1-1.4-3.2-2.4-5.3l24.8-11.5 4.9 10.9c2.7 6.2 1 11-4 13-3.2 1.3-6.8.7-9.2-1.8l-7.8 9.6-2.5-6 7.1-8.7c-.8-1.7-1.1-2.6-1.9-4.3l-9 4.1zm12.9-5.8c.8 1.9 1.3 2.8 2.1 4.7 1.2 2.7 3.4 3.7 5.9 2.7 2.4-1 3.3-3.4 2.1-6.2a96.76 96.76 0 0 0-2.1-4.7l-8 3.5zm-2.6 30.8l25.6-9.7 4.4 11.9c1.8 5.2.4 9.3-3.6 10.6-2.8.9-5.9-.5-7.3-3.2h-.1c1 3.7-.7 7.3-4.2 8.4-4.6 1.5-8.6-1-10.5-6.6-1.8-4.5-2.6-6.8-4.3-11.4zm17-.1l1.5 4c1.1 3 2.9 4.3 5.1 3.5 2.1-.7 2.7-2.7 1.8-5.3l-1.7-4.7c-2.7 1.1-4 1.5-6.7 2.5zm-9.3 8.8c1.1 3.2 3 4.4 5.5 3.6 2.4-.8 3.1-3.1 1.9-6.4l-1.7-4.7-7.5 2.7c.8 1.9 1.1 2.9 1.8 4.8zm.5 14.9l26.1-8.3 1.8 5.8-26.2 8c-.6-2.2-1-3.3-1.7-5.5zm13.7 23.7l-2.5-9.5c-2.8-.1-4.2-.2-7-.2-.6-2.3-1-3.4-1.7-5.7 11.6.5 17.4.9 29 1.9l1.9 6.9c-9.6 6.7-14.4 9.9-24.1 16.2l-1.5-6c2.4-1.4 3.6-2.1 5.9-3.6zm1.9-9.5a186.42 186.42 0 0 1 1.9 7.1l9.9-6.4v-.1l-11.8-.6zm2.8 24c-2.1.8-3.1 3.4-2.4 6.4.6 3 2.5 4.8 4.4 4.5 1.7-.3 2.5-1.9 2.5-5.4v-3.8c-.1-5.3 1.8-8.4 5.7-9.3 4.9-1.1 9.2 2.6 10.6 9 1.4 6.7-1.1 11.5-5.9 12.5l-1.1-5.6c2.2-.6 3.2-3 2.6-6-.6-2.9-2.4-4.6-4.3-4.2-1.6.4-2.3 1.9-2.3 5.3v3.5c0 5.8-1.9 8.7-6 9.5-5.2 1-9.3-2.7-10.7-9.4-1.4-6.5.7-11.3 5.6-12.7.6 2.4.8 3.5 1.3 5.7zm5.4 35.9l-1.5-9.8-6.9-1-1-5.9c11.5 1.8 17.2 2.8 28.6 5.1.5 2.9.7 4.3 1.1 7.1-10.2 5.6-15.4 8.3-25.8 13.5l-.8-6.1c2.5-1.1 3.8-1.7 6.3-2.9zm2.9-9.2c.5 2.9.7 4.4 1.1 7.3l10.5-5.3v-.1l-11.6-1.9z" fill="#4db748"/><path d="M607.9 571.3c0-16.4 13.3-29.7 29.7-29.7s29.7 13.3 29.7 29.7m-26.5-36.7l2.1-16.8 91.5-182L673 529.9l-10.2 13.6c-2.8-2.8-6.1-5.2-10.1-6.8-3.9-1.5-8-2.2-11.9-2.1z" fill="#414042"/></svg>
