<svg xmlns="http://www.w3.org/2000/svg" viewBox="0 0 1280 720" xmlns:v="https://vecta.io/nano"><path d="M0 0h1280v720H0z" fill="#fffffb"/><path d="M348.43,272.36l98.11,98.12a276.28,276.28,0,0,1,184.05-76.37V155.49A412.8,412.8,0,0,0,348.43,272.36Z" fill="#f26922"/><path d="M644.45,155.49V294.11a276.29,276.29,0,0,1,184.06,76.37l98.11-98.12A412.84,412.84,0,0,0,644.45,155.49Z" fill="#fdd007"/><path d="M338.62,282.17c-75.46,77.95-117,180.33-117,289.09H360.28a276.27,276.27,0,0,1,76.46-191Z" fill="#ee2926"/><path d="M936.42 282.17l-98.11 98.11a276.26 276.26 0 0 1 76.45 191h138.62c0-108.78-41.49-211.16-116.96-289.11z" fill="#4db748"/><path d="M223.25 433.91c2.21.55 4.43-1.15 5.55-4s.59-5.38-1.27-6.13c-1.65-.68-3.08.19-5 3.07l-2.06 3.13c-2.88 4.46-6.14 6-9.9 4.63-4.73-1.73-6.29-7.25-3.91-13.31 2.49-6.32 7.2-9 11.79-7.14l-2.15 5.19c-2.21-.69-4.32.77-5.43 3.58s-.54 5.13 1.35 5.85c1.58.6 2.95-.36 4.82-3.15l1.92-2.94c3.21-4.85 6.36-6.19 10.2-4.56 4.89 2.06 6.27 7.33 3.79 13.65-2.41 6.13-6.76 9-11.65 7.42l1.95-5.29zm14.82-15.84L213 407.22l2.46-5.58 11.38 5.1.07-.16c-2.81-5.93-4.17-8.93-6.79-15l3-6.1c2.43 6 3.7 9 6.32 14.84 7.42-1.49 11.12-2.16 18.5-3.34l-3 6.17-13.83 2.63 1.72 3.66 7.62 3.41c-1 2.07-1.45 3.15-2.38 5.22zM249 394.8l-24.42-12.31 2.78-5.43 24.25 12.63a117.26 117.26 0 0 0-2.61 5.11zm-13.67-32.41c3-5.2 8.29-6.81 13.12-3.93s5.93 8.3 3 13.43l-2.56 4.56 7.56 4.16-2.74 5.05-24.12-12.88c2.22-4.19 3.41-6.26 5.7-10.39zm9.68 11.9l1.94-3.48c1.66-3 1.15-5.54-1.56-7.1s-5.21-.7-6.9 2.31l-2 3.58z" fill="#ee2926"/><path d="M421.21 201.92l-13.6-23.73 11-6.14c4.78-2.59 9-1.81 11 1.91a6.15 6.15 0 0 1-2 7.73l.07.14c3.52-1.56 7.27-.43 8.93 2.78 2.21 4.28.36 8.6-4.79 11.39l-10.61 5.92zm-2.78-16.78l3.72-2.06c2.78-1.52 3.74-3.55 2.65-5.59s-3.05-2.29-5.52-1l-4.28 2.44zM428.5 193c2.93-1.59 3.87-3.67 2.64-6s-3.52-2.58-6.56-.92l-4.32 2.38 3.87 6.93a98.74 98.74 0 0 1 4.37-2.39zm14.62-2.88l-12.39-24.37 5.41-2.72 12.11 24.52c-2.05.97-3.08 1.45-5.13 2.52zm20.93-17.3l-8.88 4 .92 6.89-5.31 2.55c-1.37-11.5-1.95-17.28-2.91-28.9l6.48-2.94c8.14 8.34 12.12 12.57 19.91 21.15l-5.6 2.42-4.61-5.22zm-9.55-.37l6.66-3-7.91-8.72-.13.06 1.38 11.61zm23-6.63c1.1 2 3.86 2.46 6.71 1.33s4.31-3.25 3.59-5.12c-.64-1.67-2.24-2.12-5.65-1.57l-3.68.63c-5.21.93-8.56-.41-10.1-4.1-2-4.65 1-9.53 7-11.91 6.27-2.48 11.39-.85 13.21 3.75l-5.23 2c-1-2.08-3.51-2.63-6.3-1.53s-4.09 3.09-3.32 5c.63 1.56 2.26 1.91 5.56 1.38l3.45-.6c5.71-1 8.83.42 10.28 4.33 1.85 5-1 9.59-7.36 12.09-6.12 2.43-11.19 1.2-13.35-3.47 2.09-.98 3.13-1.41 5.21-2.26zm34.07-11.3l-9.25 3.13.21 7-5.54 2c-.2-11.58-.2-17.39 0-29l6.75-2.29c7.26 9.12 10.8 13.73 17.69 23.05l-5.82 1.84zm-9.47-1.32c2.76-1 4.15-1.43 6.93-2.36l-7-9.46h-.13l.22 11.77z" fill="#f26922"/><path d="M745.85 157.53l7.61-26.27 12.06 3.65c5.19 1.64 7.58 5.23 6.26 9.2a6.17 6.17 0 0 1-6.92 4l-.05.14c3.56 1.45 5.36 4.92 4.21 8.35-1.54 4.56-5.93 6.24-11.52 4.48-4.64-1.49-6.97-2.2-11.65-3.55zM756 143.87l4.07 1.25c3 .94 5.15.21 5.86-2s-.48-3.78-3.16-4.62l-4.77-1.44zm1.38 12.68c3.19 1 5.33.22 6.14-2.27s-.59-4.32-3.9-5.35l-4.71-1.45-2.3 7.6 4.76 1.47zm29.53 7.7l-9.16-3.38-4.21 5.55-5.57-1.93c7.13-9.13 10.79-13.65 18.28-22.57l6.68 2.46c-.09 11.65-.23 17.46-.73 29l-5.68-2.22.38-6.91zm-6.53-7l6.87 2.53.51-11.76h-.13l-7.26 9.25zm24.4 21.87c-7.52-3.23-10.21-10-6.91-18.27s10.14-11.14 17.95-7.78c6.21 2.66 9.28 8.23 7.75 13.61l-5.44-2.45a6.36 6.36 0 0 0-4.16-6.8c-4.34-1.87-8.28.23-10.5 5.61s-1 9.93 3.28 11.75c3.47 1.49 6.79.47 8.28-2.59l.19-.39-5.57-2.44 1.65-3.83 10.86 4.83-1.29 2.81c-3.11 6.82-9.09 8.97-16.1 5.96zm24.36-.67c-1.52 3.16-.62 6.12 2.71 7.78s6.22.55 7.81-2.57l7.77-15.25 5.38 2.78-8.21 15.67c-2.8 5.33-8.65 6.88-14.93 3.76s-8.61-8.71-6.06-14.17l7.49-16 5.47 2.59zm22.71 14.42c-.84 2.11.53 4.54 3.21 6s5.25 1.31 6.25-.43c.89-1.55.22-3.07-2.36-5.38l-2.82-2.46c-4-3.46-5.07-6.91-3.19-10.43 2.38-4.45 8-5.23 13.67-2.06 5.88 3.3 7.86 8.3 5.44 12.61l-4.84-2.82c1-2.1-.17-4.38-2.79-5.85s-5-1.23-6 .55c-.81 1.48-.05 3 2.44 5.19l2.65 2.3c4.35 3.83 5.26 7.13 3.14 10.72-2.7 4.56-8.11 5.23-14 1.9-5.75-3.23-8-7.94-5.73-12.55l4.92 2.73z" fill="#f3c716"/><path d="M998.29 333.93c-3.79-6.09-5.74-9.09-9.77-15l22.65-15.34c1.38 2 2.06 3.07 3.41 5.12l-18.87 12.44 6.6 10.31zm13.14 1.89c-3 1.8-3.89 4.78-2 8s4.89 3.95 8 2.22l14.91-8.4 3 5.35-15.51 8.5c-5.28 2.89-11 .91-14.57-5.21s-2.44-12.1 2.69-15.26l15.07-9.25 3.18 5.25zm15 35.15l-4.44-8.78-6.87 1.19-2.79-5.24c11.45-1.83 17.21-2.64 28.8-4l3.24 6.42c-8 8.51-12.06 12.67-20.32 20.8-1-2.22-1.58-3.33-2.65-5.54l5.05-4.82zm-.06-9.62l3.33 6.59 8.38-8.29-.06-.13-11.63 1.83zm1.26 27.78l-2.39-5.26 24.81-11.49 4.9 10.92c2.67 6.16 1 11-4 13a8.12 8.12 0 0 1-9.16-1.79l-7.79 9.58-2.5-6 7.14-8.72-1.91-4.32zm12.92-5.79l2.07 4.68c1.19 2.75 3.39 3.72 5.89 2.67s3.28-3.44 2.08-6.2l-2.08-4.72zm-2.6 30.75l25.57-9.7 4.36 11.93c1.81 5.18.37 9.28-3.61 10.59a6.18 6.18 0 0 1-7.34-3.2l-.14.05c1 3.74-.72 7.28-4.16 8.4-4.58 1.5-8.55-1-10.5-6.6l-4.13-11.47zm17-.07l1.46 4c1.06 3 2.92 4.28 5.1 3.53s2.74-2.66 1.8-5.32l-1.68-4.68zm-9.3 8.73c1.11 3.17 3 4.43 5.49 3.59s3.11-3.07 2-6.36l-1.68-4.67L1044 418l1.69 4.75zm.53 15l26-8.31 1.82 5.84-26.15 8c-.59-2.28-.93-3.36-1.63-5.56zm13.7 23.65l-2.55-9.5-7-.24-1.66-5.69c11.58.54 17.38.93 29 1.93l1.86 6.95c-9.56 6.69-14.39 9.93-24.14 16.21l-1.46-6 5.99-3.69zm1.92-9.43l1.91 7.13 9.89-6.41v-.13l-11.76-.62zm2.77 24c-2.15.75-3.07 3.41-2.43 6.44s2.48 4.85 4.45 4.45c1.75-.34 2.46-1.86 2.49-5.35v-3.77c0-5.34 1.83-8.44 5.72-9.35 4.91-1.15 9.24 2.63 10.59 9 1.4 6.68-1.06 11.51-5.91 12.51l-1.07-5.55c2.23-.65 3.19-3 2.57-6s-2.37-4.61-4.35-4.17c-1.65.37-2.27 1.93-2.29 5.3v3.54c0 5.85-1.9 8.72-6 9.48-5.22 1-9.28-2.7-10.69-9.41-1.37-6.5.68-11.32 5.64-12.67.57 2.2.82 3.3 1.32 5.52zm5.43 35.83l-1.5-9.76-6.89-1-1-5.86c11.45 1.82 17.17 2.84 28.62 5.13l1.1 7.14c-10.24 5.62-15.39 8.32-25.77 13.51l-.8-6.12 6.24-3.04zm2.93-9.2l1.13 7.33 10.53-5.3v-.14l-11.68-1.89z" fill="#4db748"/><path d="M667.19,571.26H607.85a29.67,29.67,0,0,1,59.34,0Zm13.65-32.14-13.65,10.09a29.59,29.59,0,0,1,8.73,22l16.86-2L875.6,479.49Z" fill="#414042"/></svg>
